<?xml version="1.0" standalone="no"?>
<!DOCTYPE svg PUBLIC "-//W3C//DTD SVG 20010904//EN" "http://www.w3.org/TR/2001/REC-SVG-20010904/DTD/svg10.dtd">
<svg xmlns="http://www.w3.org/2000/svg" version="1.0" width="249.000000pt" height="59.000000pt" viewBox="0 0 249.000000 59.000000" preserveAspectRatio="xMidYMid meet">
<metadata>
Created by potrace 1.16, written by Peter Selinger 2001-2019
<meta name="Producer" content="Online-Convert"/></metadata>
<g transform="translate(0.000000,59.000000) scale(0.100000,-0.100000)" fill="#000000" stroke="none">
<path d="M980 290 c0 -103 1 -110 20 -110 16 0 20 7 20 35 0 34 1 35 39 35 56 0 91 31 91 80 0 53 -26 70 -107 70 l-63 0 0 -110z"/>
<path d="M443 339 c9 -6 14 -15 11 -21 -4 -6 -7 -24 -6 -41 0 -16 -7 -37 -17 -46 -9 -9 -11 -12 -3 -7 9 7 21 -1 42 -26 20 -24 38 -35 55 -35 17 0 35 11 55 35 21 25 33 33 42 26 8 -5 5 -1 -5 9 -11 10 -17 25 -14 36 2 10 0 26 -6 36 -7 14 -6 21 9 32 10 7 13 13 7 13 -7 0 -15 -5 -18 -10 -4 -6 -13 -7 -23 -1 -9 5 -30 9 -47 9 -16 0 -38 -4 -47 -9 -10 -6 -19 -5 -23 1 -3 5 -12 10 -18 10 -7 0 -4 -5 6 -11z"/>
<path d="M1210 322 c-36 -36 -39 -77 -9 -116 26 -33 86 -37 114 -6 22 24 12 39 -15 22 -25 -15 -53 -15 -68 0 -22 22 -12 28 49 28 l62 0 -7 32 c-8 41 -23 56 -63 64 -27 5 -37 1 -63 -24z"/>
<path d="M1665 338 c-49 -26 -60 -86 -24 -132 16 -20 29 -26 59 -26 49 0 80 30 80 76 0 46 -9 63 -41 79 -33 18 -47 18 -74 3z"/>
<path d="M1820 265 c0 -78 2 -85 20 -85 17 0 20 7 20 53 0 57 12 77 46 77 27 0 34 -17 34 -81 0 -43 2 -49 21 -49 21 0 21 4 16 66 -6 86 -30 115 -79 96 -21 -8 -34 -9 -36 -2 -2 5 -12 10 -23 10 -17 0 -19 -8 -19 -85z"/>
</g>
</svg>
